<?xml version="1.0" encoding="UTF-8" standalone="no"?>
<!-- Created with Inkscape (http://www.inkscape.org/) -->

<svg
   xmlns:dc="http://purl.org/dc/elements/1.1/"
   xmlns:cc="http://creativecommons.org/ns#"
   xmlns:rdf="http://www.w3.org/1999/02/22-rdf-syntax-ns#"
   xmlns:svg="http://www.w3.org/2000/svg"
   xmlns="http://www.w3.org/2000/svg"
   xmlns:sodipodi="http://sodipodi.sourceforge.net/DTD/sodipodi-0.dtd"
   xmlns:inkscape="http://www.inkscape.org/namespaces/inkscape"
   version="1.1"
   id="svg3786"
   xml:space="preserve"
   width="256"
   height="132"
   viewBox="0 0 256 132"
   sodipodi:docname="five_men.svg"
   inkscape:version="0.92.2 5c3e80d, 2017-08-06"><metadata
     id="metadata3792"><rdf:RDF><cc:Work
         rdf:about=""><dc:format>image/svg+xml</dc:format><dc:type
           rdf:resource="http://purl.org/dc/dcmitype/StillImage" /><dc:title></dc:title></cc:Work></rdf:RDF></metadata><defs
     id="defs3790"><clipPath
       clipPathUnits="userSpaceOnUse"
       id="clipPath3804"><path
         d="M 0,0 H 192 V 99 H 0 Z"
         id="path3802"
         inkscape:connector-curvature="0" /></clipPath></defs><sodipodi:namedview
     pagecolor="#ffffff"
     bordercolor="#666666"
     borderopacity="1"
     objecttolerance="10"
     gridtolerance="10"
     guidetolerance="10"
     inkscape:pageopacity="0"
     inkscape:pageshadow="2"
     inkscape:window-width="722"
     inkscape:window-height="480"
     id="namedview3788"
     showgrid="false"
     inkscape:pagecheckerboard="true"
     inkscape:zoom="1.3789062"
     inkscape:cx="128"
     inkscape:cy="66"
     inkscape:window-x="0"
     inkscape:window-y="0"
     inkscape:window-maximized="0"
     inkscape:current-layer="g3794" /><g
     id="g3794"
     inkscape:groupmode="layer"
     inkscape:label="five_men"
     transform="matrix(1.3333333,0,0,-1.3333333,0,132)"><g
       id="g3796" /><g
       id="g3798"><g
         id="g3800"
         clip-path="url(#clipPath3804)" /></g><g
       id="g3808"><path
         d="M 16.31534,71 C 15.68631,70.86347 15.04963,70.71261 14.42069,70.55458 10.1308,69.38199 6.08452,67.5355 2.454585,65.09408 0.9411657,63.98388 0.04002391,62.2958 0,60.49577 V 48.99992 h 19 z"
         style="fill:#bfbfbf;fill-opacity:1;fill-rule:evenodd;stroke:none"
         id="path3810"
         inkscape:connector-curvature="0" /><path
         d="m 36,87 c 0,-6.6274 -5.3726,-12 -12,-12 -6.6274,0 -12,5.3726 -12,12 0,6.6274 5.3726,12 12,12 6.6274,0 12,-5.3726 12,-12 z"
         style="fill:#bfbfbf;fill-opacity:1;fill-rule:evenodd;stroke:none"
         id="path3812"
         inkscape:connector-curvature="0" /><path
         d="M 45.6746,65.79814 C 42.47718,68.49785 38.40774,70.29766 34.3383,71.49753 33.75695,71.67751 33.15386,71.84254 32.54344,72 L 30,48.99992 h 18 v 11.99873 c -0.03792,1.87885 -0.89163,3.64079 -2.3254,4.79949 z m -2.7614,-8.54909 h -7.26687 v 1.49984 h 7.26687 z"
         style="fill:#bfbfbf;fill-opacity:1;fill-rule:evenodd;stroke:none"
         id="path3814"
         inkscape:connector-curvature="0" /><path
         d="M 26.64204,68 28,72 h -7 l 1.35796,-4 z"
         style="fill:#bfbfbf;fill-opacity:1;fill-rule:evenodd;stroke:none"
         id="path3816"
         inkscape:connector-curvature="0" /><path
         d="M 22.11476,66 21,51.20252 24.50004,48 28.00009,51.20252 26.88532,66 Z"
         style="fill:#bfbfbf;fill-opacity:1;fill-rule:evenodd;stroke:none"
         id="path3818"
         inkscape:connector-curvature="0" /><path
         d="M 88.31534,71 C 87.68631,70.86347 87.04963,70.71261 86.42069,70.55458 82.1308,69.38199 78.08452,67.5355 74.45458,65.09408 72.94117,63.98388 72.04002,62.2958 72,60.49577 V 48.99992 h 19 z"
         style="fill:#bfbfbf;fill-opacity:1;fill-rule:evenodd;stroke:none"
         id="path3820"
         inkscape:connector-curvature="0" /><path
         d="m 108,87 c 0,-6.6274 -5.3726,-12 -12,-12 -6.6274,0 -12,5.3726 -12,12 0,6.6274 5.3726,12 12,12 6.6274,0 12,-5.3726 12,-12 z"
         style="fill:#bfbfbf;fill-opacity:1;fill-rule:evenodd;stroke:none"
         id="path3822"
         inkscape:connector-curvature="0" /><path
         d="m 117.6746,65.79814 c -3.1974,2.69971 -7.2669,4.49952 -11.3363,5.69939 -0.5814,0.17998 -1.1844,0.34501 -1.7949,0.50247 L 102,48.99992 h 18 v 11.99873 c -0.0379,1.87885 -0.8916,3.64079 -2.3254,4.79949 z m -2.7614,-8.54909 h -7.2669 v 1.49984 h 7.2669 z"
         style="fill:#bfbfbf;fill-opacity:1;fill-rule:evenodd;stroke:none"
         id="path3824"
         inkscape:connector-curvature="0" /><path
         d="M 98.64204,68 100,72 h -7 l 1.35796,-4 z"
         style="fill:#bfbfbf;fill-opacity:1;fill-rule:evenodd;stroke:none"
         id="path3826"
         inkscape:connector-curvature="0" /><path
         d="M 94.11476,66 93,51.20252 96.50004,48 100.0001,51.20252 98.88532,66 Z"
         style="fill:#bfbfbf;fill-opacity:1;fill-rule:evenodd;stroke:none"
         id="path3828"
         inkscape:connector-curvature="0" /><path
         d="m 160.3153,71 c -0.629,-0.13653 -1.2657,-0.28739 -1.8946,-0.44542 -4.2899,-1.17259 -8.3362,-3.01908 -11.9661,-5.4605 C 144.9412,63.98388 144.04,62.2958 144,60.49577 V 48.99992 h 19 z"
         style="fill:#bfbfbf;fill-opacity:1;fill-rule:evenodd;stroke:none"
         id="path3830"
         inkscape:connector-curvature="0" /><path
         d="m 180,87 c 0,-6.6274 -5.3726,-12 -12,-12 -6.6274,0 -12,5.3726 -12,12 0,6.6274 5.3726,12 12,12 6.6274,0 12,-5.3726 12,-12 z"
         style="fill:#bfbfbf;fill-opacity:1;fill-rule:evenodd;stroke:none"
         id="path3832"
         inkscape:connector-curvature="0" /><path
         d="m 189.6746,65.79814 c -3.1974,2.69971 -7.2669,4.49952 -11.3363,5.69939 -0.5814,0.17998 -1.1844,0.34501 -1.7949,0.50247 L 174,48.99992 h 18 v 11.99873 c -0.0379,1.87885 -0.8916,3.64079 -2.3254,4.79949 z m -2.7614,-8.54909 h -7.2669 v 1.49984 h 7.2669 z"
         style="fill:#bfbfbf;fill-opacity:1;fill-rule:evenodd;stroke:none"
         id="path3834"
         inkscape:connector-curvature="0" /><path
         d="M 170.642,68 172,72 h -7 l 1.358,-4 z"
         style="fill:#bfbfbf;fill-opacity:1;fill-rule:evenodd;stroke:none"
         id="path3836"
         inkscape:connector-curvature="0" /><path
         d="M 166.1148,66 165,51.20252 168.5,48 172.0001,51.20252 170.8853,66 Z"
         style="fill:#bfbfbf;fill-opacity:1;fill-rule:evenodd;stroke:none"
         id="path3838"
         inkscape:connector-curvature="0" /><path
         d="M 52.31534,23 C 51.68631,22.86347 51.04963,22.71261 50.42069,22.55458 46.1308,21.38199 42.08452,19.5355 38.45458,17.09408 36.94117,15.98388 36.04002,14.2958 36,12.49577 V 0.9999234 h 19 z"
         style="fill:#bfbfbf;fill-opacity:1;fill-rule:evenodd;stroke:none"
         id="path3840"
         inkscape:connector-curvature="0" /><path
         d="m 72,39 c 0,-6.6274 -5.3726,-12 -12,-12 -6.6274,0 -12,5.3726 -12,12 0,6.6274 5.3726,12 12,12 6.6274,0 12,-5.3726 12,-12 z"
         style="fill:#bfbfbf;fill-opacity:1;fill-rule:evenodd;stroke:none"
         id="path3842"
         inkscape:connector-curvature="0" /><path
         d="M 81.6746,17.79814 C 78.47718,20.49785 74.40774,22.29766 70.3383,23.49753 69.75695,23.67751 69.15386,23.84254 68.54344,24 L 66,0.9999209 H 84 V 12.99865 c -0.03792,1.87885 -0.89163,3.64079 -2.3254,4.79949 z M 78.9132,9.249045 h -7.26687 v 1.499845 h 7.26687 z"
         style="fill:#bfbfbf;fill-opacity:1;fill-rule:evenodd;stroke:none"
         id="path3844"
         inkscape:connector-curvature="0" /><path
         d="M 62.64204,20 64,24 h -7 l 1.35796,-4 z"
         style="fill:#bfbfbf;fill-opacity:1;fill-rule:evenodd;stroke:none"
         id="path3846"
         inkscape:connector-curvature="0" /><path
         d="M 58.11476,18 57,3.202519 60.50004,0 64.00009,3.202519 62.88532,18 Z"
         style="fill:#bfbfbf;fill-opacity:1;fill-rule:evenodd;stroke:none"
         id="path3848"
         inkscape:connector-curvature="0" /><path
         d="m 124.3153,23 c -0.629,-0.13653 -1.2657,-0.28739 -1.8946,-0.44542 -4.2899,-1.17259 -8.3362,-3.01908 -11.9661,-5.4605 C 108.9412,15.98388 108.04,14.2958 108,12.49577 V 0.9999234 h 19 z"
         style="fill:#bfbfbf;fill-opacity:1;fill-rule:evenodd;stroke:none"
         id="path3850"
         inkscape:connector-curvature="0" /><path
         d="m 144,39 c 0,-6.6274 -5.3726,-12 -12,-12 -6.6274,0 -12,5.3726 -12,12 0,6.6274 5.3726,12 12,12 6.6274,0 12,-5.3726 12,-12 z"
         style="fill:#bfbfbf;fill-opacity:1;fill-rule:evenodd;stroke:none"
         id="path3852"
         inkscape:connector-curvature="0" /><path
         d="m 153.6746,17.79814 c -3.1974,2.69971 -7.2669,4.49952 -11.3363,5.69939 -0.5814,0.17998 -1.1844,0.34501 -1.7949,0.50247 L 138,0.9999209 h 18 V 12.99865 c -0.0379,1.87885 -0.8916,3.64079 -2.3254,4.79949 z m -2.7614,-8.549095 h -7.2669 v 1.499845 h 7.2669 z"
         style="fill:#bfbfbf;fill-opacity:1;fill-rule:evenodd;stroke:none"
         id="path3854"
         inkscape:connector-curvature="0" /><path
         d="M 134.642,20 136,24 h -7 l 1.358,-4 z"
         style="fill:#bfbfbf;fill-opacity:1;fill-rule:evenodd;stroke:none"
         id="path3856"
         inkscape:connector-curvature="0" /><path
         d="M 130.1148,18 129,3.202519 132.5,0 136.0001,3.202519 134.8853,18 Z"
         style="fill:#bfbfbf;fill-opacity:1;fill-rule:evenodd;stroke:none"
         id="path3858"
         inkscape:connector-curvature="0" /></g></g></svg>