<?xml version="1.0" encoding="UTF-8" standalone="no"?>
<!-- Created with Inkscape (http://www.inkscape.org/) -->

<svg
   xmlns:dc="http://purl.org/dc/elements/1.1/"
   xmlns:cc="http://creativecommons.org/ns#"
   xmlns:rdf="http://www.w3.org/1999/02/22-rdf-syntax-ns#"
   xmlns:svg="http://www.w3.org/2000/svg"
   xmlns="http://www.w3.org/2000/svg"
   xmlns:sodipodi="http://sodipodi.sourceforge.net/DTD/sodipodi-0.dtd"
   xmlns:inkscape="http://www.inkscape.org/namespaces/inkscape"
   width="16.933001mm"
   height="17.992001mm"
   viewBox="0 0 16.933001 17.992001"
   version="1.1"
   id="svg8"
   inkscape:version="0.92.2 5c3e80d, 2017-08-06"
   sodipodi:docname="single_man.svg">
  <defs
     id="defs2">
    <clipPath
       id="clipPath884"
       clipPathUnits="userSpaceOnUse">
      <path
         inkscape:connector-curvature="0"
         id="path882"
         d="M 0,0 H 48 V 51 H 0 Z" />
    </clipPath>
  </defs>
  <sodipodi:namedview
     id="base"
     pagecolor="#ffffff"
     bordercolor="#666666"
     borderopacity="1.0"
     inkscape:pageopacity="0.0"
     inkscape:pageshadow="2"
     inkscape:zoom="7.4852943"
     inkscape:cx="31.999999"
     inkscape:cy="34.000001"
     inkscape:document-units="mm"
     inkscape:current-layer="g874"
     showgrid="false"
     inkscape:pagecheckerboard="true"
     inkscape:window-width="1280"
     inkscape:window-height="704"
     inkscape:window-x="0"
     inkscape:window-y="1"
     inkscape:window-maximized="1" />
  <metadata
     id="metadata5">
    <rdf:RDF>
      <cc:Work
         rdf:about="">
        <dc:format>image/svg+xml</dc:format>
        <dc:type
           rdf:resource="http://purl.org/dc/dcmitype/StillImage" />
        <dc:title></dc:title>
      </cc:Work>
    </rdf:RDF>
  </metadata>
  <g
     inkscape:label="Layer 1"
     inkscape:groupmode="layer"
     id="layer1"
     transform="translate(0,-279.008)">
    <g
       transform="matrix(0.35277777,0,0,-0.35277777,0,297)"
       inkscape:label="single_man"
       id="g874"
       style="fill-rule:evenodd">
      <g
         id="g876"
         style="fill-rule:evenodd" />
      <g
         id="g878"
         style="fill-rule:evenodd">
        <g
           clip-path="url(#clipPath884)"
           id="g880"
           style="fill-rule:evenodd" />
      </g>
      <g
         id="g888"
         style="fill-rule:evenodd">
        <path
           inkscape:connector-curvature="0"
           id="path890"
           style="fill:#bfbfbf;fill-opacity:1;fill-rule:evenodd;stroke:none"
           d="M 15.45664,23 C 14.86072,22.86347 14.25755,22.71261 13.6617,22.55458 9.597599,21.38199 5.764282,19.5355 2.325396,17.09408 0.8916307,15.98388 0.03791738,14.2958 0,12.49577 V 0.9999234 h 18 z" />
        <path
           inkscape:connector-curvature="0"
           id="path892"
           style="fill:#bfbfbf;fill-opacity:1;fill-rule:evenodd;stroke:none"
           d="m 36,39 c 0,-6.6274 -5.3726,-12 -12,-12 -6.6274,0 -12,5.3726 -12,12 0,6.6274 5.3726,12 12,12 6.6274,0 12,-5.3726 12,-12 z" />
        <path
           inkscape:connector-curvature="0"
           id="path894"
           style="fill:#bfbfbf;fill-opacity:1;fill-rule:evenodd;stroke:none"
           d="M 45.54542,17.79814 C 42.17036,20.49785 37.87484,22.29766 33.57931,23.49753 32.96567,23.67751 32.32907,23.84254 31.68474,24 L 29,0.9999209 H 48 V 12.99865 c -0.04002,1.87885 -0.94117,3.64079 -2.45458,4.79949 z M 42.6306,9.249045 h -7.67058 v 1.499845 h 7.67058 z" />
        <path
           inkscape:connector-curvature="0"
           id="path896"
           style="fill:#bfbfbf;fill-opacity:1;fill-rule:evenodd;stroke:none"
           d="M 25.64204,20 27,24 h -7 l 1.35796,-4 z" />
        <path
           inkscape:connector-curvature="0"
           id="path898"
           style="fill:#bfbfbf;fill-opacity:1;fill-rule:evenodd;stroke:none"
           d="M 21.11476,18 20,3.202519 23.50004,0 27.00009,3.202519 25.88532,18 Z" />
      </g>
    </g>
  </g>
</svg>
