<?xml version="1.0" encoding="UTF-8" standalone="no"?>
<!-- Created with Inkscape (http://www.inkscape.org/) -->

<svg
   xmlns:dc="http://purl.org/dc/elements/1.1/"
   xmlns:cc="http://creativecommons.org/ns#"
   xmlns:rdf="http://www.w3.org/1999/02/22-rdf-syntax-ns#"
   xmlns:svg="http://www.w3.org/2000/svg"
   xmlns="http://www.w3.org/2000/svg"
   xmlns:sodipodi="http://sodipodi.sourceforge.net/DTD/sodipodi-0.dtd"
   xmlns:inkscape="http://www.inkscape.org/namespaces/inkscape"
   version="1.1"
   id="svg3125"
   xml:space="preserve"
   width="160"
   height="132"
   viewBox="0 0 160 132"
   sodipodi:docname="three_men.svg"
   inkscape:version="0.92.2 5c3e80d, 2017-08-06"><metadata
     id="metadata3131"><rdf:RDF><cc:Work
         rdf:about=""><dc:format>image/svg+xml</dc:format><dc:type
           rdf:resource="http://purl.org/dc/dcmitype/StillImage" /><dc:title></dc:title></cc:Work></rdf:RDF></metadata><defs
     id="defs3129"><clipPath
       clipPathUnits="userSpaceOnUse"
       id="clipPath3143"><path
         d="M 0,0 H 120 V 99 H 0 Z"
         id="path3141"
         inkscape:connector-curvature="0" /></clipPath></defs><sodipodi:namedview
     pagecolor="#ffffff"
     bordercolor="#666666"
     borderopacity="1"
     objecttolerance="10"
     gridtolerance="10"
     guidetolerance="10"
     inkscape:pageopacity="0"
     inkscape:pageshadow="2"
     inkscape:window-width="1284"
     inkscape:window-height="695"
     id="namedview3127"
     showgrid="false"
     inkscape:pagecheckerboard="true"
     inkscape:zoom="1.7878788"
     inkscape:cx="80"
     inkscape:cy="66"
     inkscape:window-x="0"
     inkscape:window-y="0"
     inkscape:window-maximized="0"
     inkscape:current-layer="g3133" /><g
     id="g3133"
     inkscape:groupmode="layer"
     inkscape:label="three_men"
     transform="matrix(1.3333333,0,0,-1.3333333,0,132)"><g
       id="g3135" /><g
       id="g3137"><g
         id="g3139"
         clip-path="url(#clipPath3143)" /></g><g
       id="g3147"><path
         d="M 16.31534,71 C 15.68631,70.86347 15.04963,70.71261 14.42069,70.55458 10.1308,69.38199 6.08452,67.5355 2.454585,65.09408 0.9411657,63.98388 0.04002391,62.2958 0,60.49577 V 48.99992 h 19 z"
         style="fill:#bfbfbf;fill-opacity:1;fill-rule:evenodd;stroke:none"
         id="path3149"
         inkscape:connector-curvature="0" /><path
         d="m 36,87 c 0,-6.6274 -5.3726,-12 -12,-12 -6.6274,0 -12,5.3726 -12,12 0,6.6274 5.3726,12 12,12 6.6274,0 12,-5.3726 12,-12 z"
         style="fill:#bfbfbf;fill-opacity:1;fill-rule:evenodd;stroke:none"
         id="path3151"
         inkscape:connector-curvature="0" /><path
         d="M 45.54542,65.79814 C 42.17036,68.49785 37.87484,70.29766 33.57931,71.49753 32.96567,71.67751 32.32907,71.84254 31.68474,72 L 29,48.99992 h 19 v 11.99873 c -0.04002,1.87885 -0.94117,3.64079 -2.45458,4.79949 z M 42.6306,57.24905 h -7.67058 v 1.49984 h 7.67058 z"
         style="fill:#bfbfbf;fill-opacity:1;fill-rule:evenodd;stroke:none"
         id="path3153"
         inkscape:connector-curvature="0" /><path
         d="M 26.44804,68 28,72 h -8 l 1.55196,-4 z"
         style="fill:#bfbfbf;fill-opacity:1;fill-rule:evenodd;stroke:none"
         id="path3155"
         inkscape:connector-curvature="0" /><path
         d="M 21.95551,66 21,51.20252 24.00004,48 27.00007,51.20252 26.04456,66 Z"
         style="fill:#bfbfbf;fill-opacity:1;fill-rule:evenodd;stroke:none"
         id="path3157"
         inkscape:connector-curvature="0" /><path
         d="M 88.31534,71 C 87.68631,70.86347 87.04963,70.71261 86.42069,70.55458 82.1308,69.38199 78.08452,67.5355 74.45458,65.09408 72.94117,63.98388 72.04002,62.2958 72,60.49577 V 48.99992 h 19 z"
         style="fill:#bfbfbf;fill-opacity:1;fill-rule:evenodd;stroke:none"
         id="path3159"
         inkscape:connector-curvature="0" /><path
         d="m 108,87 c 0,-6.6274 -5.3726,-12 -12,-12 -6.6274,0 -12,5.3726 -12,12 0,6.6274 5.3726,12 12,12 6.6274,0 12,-5.3726 12,-12 z"
         style="fill:#bfbfbf;fill-opacity:1;fill-rule:evenodd;stroke:none"
         id="path3161"
         inkscape:connector-curvature="0" /><path
         d="m 117.5454,65.79814 c -3.375,2.69971 -7.6706,4.49952 -11.9661,5.69939 -0.6136,0.17998 -1.2502,0.34501 -1.8946,0.50247 L 101,48.99992 h 19 v 11.99873 c -0.04,1.87885 -0.9412,3.64079 -2.4546,4.79949 z m -2.9148,-8.54909 H 106.96 v 1.49984 h 7.6706 z"
         style="fill:#bfbfbf;fill-opacity:1;fill-rule:evenodd;stroke:none"
         id="path3163"
         inkscape:connector-curvature="0" /><path
         d="M 98.44804,68 100,72 h -8 l 1.55196,-4 z"
         style="fill:#bfbfbf;fill-opacity:1;fill-rule:evenodd;stroke:none"
         id="path3165"
         inkscape:connector-curvature="0" /><path
         d="M 93.95551,66 93,51.20252 96.00004,48 99.00007,51.20252 98.04456,66 Z"
         style="fill:#bfbfbf;fill-opacity:1;fill-rule:evenodd;stroke:none"
         id="path3167"
         inkscape:connector-curvature="0" /><path
         d="M 52.31534,23 C 51.68631,22.86347 51.04963,22.71261 50.42069,22.55458 46.1308,21.38199 42.08452,19.5355 38.45458,17.09408 36.94117,15.98388 36.04002,14.2958 36,12.49577 V 0.9999234 h 19 z"
         style="fill:#bfbfbf;fill-opacity:1;fill-rule:evenodd;stroke:none"
         id="path3169"
         inkscape:connector-curvature="0" /><path
         d="m 72,39 c 0,-6.6274 -5.3726,-12 -12,-12 -6.6274,0 -12,5.3726 -12,12 0,6.6274 5.3726,12 12,12 6.6274,0 12,-5.3726 12,-12 z"
         style="fill:#bfbfbf;fill-opacity:1;fill-rule:evenodd;stroke:none"
         id="path3171"
         inkscape:connector-curvature="0" /><path
         d="M 81.54542,17.79814 C 78.17036,20.49785 73.87484,22.29766 69.57931,23.49753 68.96567,23.67751 68.32907,23.84254 67.68474,24 L 65,0.9999209 H 84 V 12.99865 c -0.04002,1.87885 -0.94117,3.64079 -2.45458,4.79949 z M 78.6306,9.249045 h -7.67058 v 1.499845 h 7.67058 z"
         style="fill:#bfbfbf;fill-opacity:1;fill-rule:evenodd;stroke:none"
         id="path3173"
         inkscape:connector-curvature="0" /><path
         d="M 62.44804,20 64,24 h -8 l 1.55196,-4 z"
         style="fill:#bfbfbf;fill-opacity:1;fill-rule:evenodd;stroke:none"
         id="path3175"
         inkscape:connector-curvature="0" /><path
         d="M 57.95551,18 57,3.202519 60.00004,0 63.00007,3.202519 62.04456,18 Z"
         style="fill:#bfbfbf;fill-opacity:1;fill-rule:evenodd;stroke:none"
         id="path3177"
         inkscape:connector-curvature="0" /></g></g></svg>